<?xml version="1.0" standalone="no"?>
<!DOCTYPE svg PUBLIC "-//W3C//DTD SVG 20010904//EN"
 "http://www.w3.org/TR/2001/REC-SVG-20010904/DTD/svg10.dtd">
<svg version="1.0" xmlns="http://www.w3.org/2000/svg"
 width="160.000000pt" height="160.000000pt" viewBox="0 0 160.000000 160.000000"
 preserveAspectRatio="xMidYMid meet">
<metadata>
Created by potrace 1.10, written by Peter Selinger 2001-2011
</metadata>
<g transform="translate(0.000000,160.000000) scale(0.100000,-0.100000)"
fill="#000000" stroke="none">
<path d="M740 1373 c-151 -25 -307 -132 -388 -266 -55 -91 -75 -160 -80 -280
-4 -95 -1 -117 22 -190 78 -250 299 -411 553 -402 95 3 186 28 259 71 58 34
132 101 149 135 14 27 14 30 -15 62 -33 38 -136 97 -170 97 -12 0 -41 -14 -66
-30 -87 -60 -176 -75 -268 -44 -43 15 -52 15 -122 -1 -41 -10 -77 -16 -79 -13
-3 3 3 35 12 71 15 56 16 74 5 124 -34 167 19 297 149 362 101 50 209 39 313
-32 21 -15 48 -27 60 -27 30 0 163 76 181 104 22 33 8 63 -56 120 -72 65 -128
96 -222 123 -75 22 -167 28 -237 16z m277 -66 c35 -14 77 -35 95 -48 39 -26
128 -110 128 -120 0 -6 -124 -80 -162 -97 -3 -2 -28 12 -55 31 -68 50 -140 71
-216 65 -205 -17 -345 -215 -293 -417 16 -63 16 -63 -14 -166 -16 -57 -30
-105 -30 -108 0 -3 47 10 104 28 l104 33 59 -20 c98 -34 225 -8 296 60 l28 27
65 -35 c35 -19 76 -44 90 -55 l26 -21 -54 -50 c-248 -226 -618 -180 -800 101
-110 170 -110 410 0 580 71 110 186 197 303 230 84 23 246 14 326 -18z"/>
</g>
</svg>
